<svg id="レイヤー_1" data-name="レイヤー 1" xmlns="http://www.w3.org/2000/svg" xmlns:xlink="http://www.w3.org/1999/xlink" viewBox="0 0 650 265"><defs><style>.cls-1,.cls-2,.cls-3,.cls-6{fill:none;}.cls-1{clip-rule:evenodd;}.cls-3{fill-rule:evenodd;}.cls-4{fill:#fefc08;}.cls-5{fill:#f7743f;}.cls-6{stroke:#fff;stroke-miterlimit:8;stroke-width:4.57px;}.cls-7{clip-path:url(#clip-path);}.cls-8{clip-path:url(#clip-path-2);}.cls-9{fill:#fff;}.cls-10{clip-path:url(#clip-path-4);}</style><clipPath id="clip-path"><polygon class="cls-1" points="217.94 244.71 661.6 244.71 661.6 9.74 217.94 9.74 217.94 244.71 217.94 244.71"/></clipPath><clipPath id="clip-path-2"><rect class="cls-2" x="208.94" y="5.74" width="443.66" height="234.97"/></clipPath><clipPath id="clip-path-4"><rect class="cls-2" x="217.94" y="9.74" width="443.66" height="234.97"/></clipPath></defs><path class="cls-4" d="M192.15,230a3.44,3.44,0,0,1-3.47-1.19,8.54,8.54,0,0,0-3.81-2.06,1.33,1.33,0,0,0-1.69.67,29.9,29.9,0,0,1-6.67,7.12,103,103,0,0,1-18.45,10.8c-4.74,2.26-9.32,4.91-14.38,6.42a79.6,79.6,0,0,1-12,3c-2.3.31-4.62.65-6.91,1.06-2,.34-4,.28-5.89.65a48.35,48.35,0,0,1-6.89.35c-.89,0-1.69.45-2.61.45a69.74,69.74,0,0,1-9.69-1A107.45,107.45,0,0,1,88.51,254c-1.57-.4-3.23-.32-4.84-.57a94.35,94.35,0,0,1-10-1.74,47.35,47.35,0,0,1-11.63-5,101.31,101.31,0,0,1-9.15-5.61c-2.13-1.55-4.46-2.94-6.22-5-.69-.8-1.26-.78-2.15-.11C41.77,238,39,240,36.11,242c-2,1.36-6.13.25-7.33-1.85a4.64,4.64,0,0,1,.75-5.59,6,6,0,0,1,3.71-2.05c1.46-.19,2.69-1.24,4-2,.46-.27.9-.56,1.37-.82,1-.53,1.15-1,.64-2a15.74,15.74,0,0,0-.92-1.43c-2-3-3.92-6.06-5.94-9.05-.87-1.28-1.11-1.36-2.52-.73a56.24,56.24,0,0,1-9.34,3.28c-1.88.47-4.58-1.13-5.53-3.17-1.66-3.55,1.52-7.36,4.89-7.62a3.26,3.26,0,0,1,1.14.23,6,6,0,0,0,4.25-.52c.49-.21.55-.59.3-1a89.69,89.69,0,0,1-4.9-11.67c-.4-1.09-1.46-1.08-2.25-1.42-2.25-1-2.75-1.75-2.89-4.15a4.32,4.32,0,0,1,1.74-4.17,1.66,1.66,0,0,0,.61-1.81,58.13,58.13,0,0,1-1.14-8.06c-.09-2-.5-3.85-.57-5.8a39.34,39.34,0,0,0-.51-6,41,41,0,0,1-.46-4.85c-.24-3.29-.77-6.52-1.21-9.78-.27-1.92-.63-3.84-.85-5.77-.29-2.56-.57-5.13-.83-7.69-.21-2.15-.61-4.27-.83-6.41-.2-1.86-.7-3.68-.9-5.54-.3-2.79-1-5.49-1.57-8.22A24,24,0,0,1,8.71,112q-.06-4.27,0-8.55a28.7,28.7,0,0,1,1.55-9.91,19.55,19.55,0,0,0,1.48-8.4c-.32-4.22.89-8.26,1.91-12.32.66-2.64,1.4-5.27,1.93-8,.26-1.28.77-2.51,1.12-3.77,1.15-4.14,2.37-8.25,3.85-12.27.82-2.23,1.69-4.45,2.58-6.66,1.15-2.84,2.27-5.72,3.17-8.67a70.65,70.65,0,0,1,3.5-9.81,27.25,27.25,0,0,1,3.24-5,59,59,0,0,0,3.45-5.5,5,5,0,0,1,5.13-2.48c2,.17,3.09,1.55,4.07,3.07a.43.43,0,0,1,.07.2C46,17.92,48.43,21,50,24.45c1.38,3,2.58,6,3.82,9,1,2.53,2.21,5,3.19,7.55,1.27,3.27,2.35,6.62,3.62,9.89.91,2.32,2,4.55,3,6.83,1.24,2.87,2.48,5.74,3.68,8.62.31.76.85.8,1.47.68a47.35,47.35,0,0,0,6-1.32,16.45,16.45,0,0,1,4-.54,24.38,24.38,0,0,1,3.31,0c5.48.3,10.92-.54,16.39-.46a19.5,19.5,0,0,0,4.06-.76,20.48,20.48,0,0,1,4.53-.5,55.77,55.77,0,0,0,6.72,0,114,114,0,0,1,15.23-.33,83.83,83.83,0,0,1,9.59.91,43.18,43.18,0,0,0,4.84.56,48.33,48.33,0,0,1,6.27.27,58,58,0,0,1,7,1.38c3.42.93,6.79,2,10.2,3,2,.58,4,1.36,6,2.14a1.32,1.32,0,0,0,1.87-.62c1.81-3,3.52-6,5.46-8.88,3.22-4.79,6.27-9.69,9.92-14.19a92.7,92.7,0,0,1,9.21-9.48c2.9-2.7,6.21-5,9.3-7.45a23.42,23.42,0,0,0,2.57-2.41,5.48,5.48,0,0,1,5.49-1.48c2,.44,4.4,3.46,3.52,6.1a12.94,12.94,0,0,0-.09,5.71c.1.77.2,1.53.29,2.31.68,6,.21,12.06.47,18.09a46.55,46.55,0,0,0,1.57,10.67,3.36,3.36,0,0,1,.08,1c0,1.5-.09,3,0,4.49a54.45,54.45,0,0,1-.54,9.21c-.22,2.51-.64,5-1,7.56-.42,3-1.4,5.78-1.78,8.73-.2,1.5-.31,3-.58,4.52-.21,1.21-.39,2.45-.71,3.63-.61,2.33-.8,4.75-1.49,7.06-.8,2.69-1.58,5.39-2.21,8.11-.76,3.28-1.88,6.45-2.47,9.78a43.64,43.64,0,0,1-1.29,6,14,14,0,0,0-.26,2.63c-.33,2.63-.67,5.25-.76,7.91a24.86,24.86,0,0,1-.77,4.9c-.34,1.44-.72,2.88-.94,4.35a23.78,23.78,0,0,1-.7,3.31c-.36,1.25-.56,2.55-.81,3.83-.36,1.84-.79,3.67-1,5.53-.32,2.63-.71,5.25-1.28,7.84a73.73,73.73,0,0,1-2.84,9.37c-.57,1.52-1.07,3.08-1.57,4.63a2.55,2.55,0,0,0,.06,1.68c1,2.68-.61,5.07-2.63,6.35a6,6,0,0,0-1.89,2.62c-.19.36.08.68.35.93a5.21,5.21,0,0,1,1.64,5.12,5.61,5.61,0,0,1-4.89,4.13H192c-2.23,0-2.8.52-3.33,2.68a.89.89,0,0,0,.62,1.18c.71.25,1.43.42,2.14.65,2.11.68,4.16,1.5,5.22,3.7a4.78,4.78,0,0,1-.72,5.27C194.93,229.58,193.83,230.51,192.15,230ZM40.52,26.72c-.18-.53-.31-1.33-.83-1.33s-.75.81-.89,1.38c0,.14-.06.27-.09.41l-.08.28h0a18.87,18.87,0,0,0-2,4c-1,2.63-1.71,5.37-2.83,8-.93,2.18-1.75,4.4-2.65,6.59-1.2,2.92-2.61,5.76-3.62,8.74-1.34,4-2.43,8-3.51,12-.65,2.42-1,4.92-1.62,7.36a37,37,0,0,0-1,8.19c0,3,.35,6-.6,9-.51,1.58-.83,3.22-1.35,4.8a13.47,13.47,0,0,0-1,4.19q0,7.09,0,14.2a7.83,7.83,0,0,0,.11,1.37c.58,3.28,1.54,6.48,1.74,9.82a34.52,34.52,0,0,0,.62,4.3,43.89,43.89,0,0,1,.92,6.92,45.51,45.51,0,0,0,.76,7.29c.33,1.83.72,3.69.89,5.53.2,2.22.51,4.45.83,6.64.47,3.26.5,6.56,1.21,9.79a27.05,27.05,0,0,1,.18,4.78,40.66,40.66,0,0,0,.31,5.42c.37,2.09.43,4.21.95,6.28.18.69.34,1,1.13.76,4.43-1.17,8.69-2.85,13.11-4.06,2.57-.7,5.13-1.43,7.69-2.13,2-.54,4-.84,5.91-1.32a46.2,46.2,0,0,1,7.72-1.42,5.25,5.25,0,0,1,4.9,2,4.6,4.6,0,0,1,.42,5A4.1,4.1,0,0,1,64,184a71.84,71.84,0,0,0-10.15.92,55.82,55.82,0,0,0-7.72,1.43c-2.66.74-5.38,1.27-8,2.19s-5.32,1.78-8,2.67c-.5.17-1,.42-.77,1.06s.19,1.29.42,1.87a87.31,87.31,0,0,0,4,9.29,5.34,5.34,0,0,0,.82,1,1.15,1.15,0,0,0,1.53.25c1.72-.82,3.53-1.48,5.28-2.24,4.4-1.9,8.68-4.07,13.18-5.75a39.68,39.68,0,0,1,6.81-2.09c3-.53,5,1,5.64,3.11A4.62,4.62,0,0,1,63,203.84a28.21,28.21,0,0,0-6.21,1.37c-2.9.91-5.71,2.08-8.54,3.19-2.27.89-4.58,1.68-6.78,2.77a1.08,1.08,0,0,0-1.38.4c-.24.48.35.73.72,1a21.55,21.55,0,0,0,2.11,3.67,45.28,45.28,0,0,0,4.45,6.47,1.33,1.33,0,0,0,1.88.3c.87-.45,1.44-1.29,2.31-1.69a40.48,40.48,0,0,0,4.71-2.9c4.36-2.78,8.78-5.46,13.36-7.87a9,9,0,0,1,2.42-.81,4.68,4.68,0,0,1,4.88,2.81,4.89,4.89,0,0,1-2.56,6.33c-1,.52-2.12,1-3.17,1.47-2.2,1.08-4.51,1.93-6.68,3.06-2.83,1.47-5.59,3.1-8.35,4.71-2,1.15-2,1.8-.15,3.15l.16.14a42.51,42.51,0,0,0,7.39,5c3.22,1.72,6.22,3.82,9.7,5.09a55.8,55.8,0,0,0,10.56,2.38c2.22.35,4.5.33,6.76.64s4.58,1.19,6.92,1.59a46.33,46.33,0,0,0,6.89,1.16c4.46.09,8.92.37,13.41-.24,3.11-.43,6.25-.76,9.36-1.23a18.59,18.59,0,0,0,2.95-.37c1.73-.53,3.52-.86,5.26-1.33a64.51,64.51,0,0,0,7.46-2.16c4.49-1.85,8.9-3.91,13.28-6,1.66-.8,3.36-1.52,5-2.4s2.82-1.78,4.28-2.59a34.29,34.29,0,0,0,8.4-6.46c.75-.81.65-1.14-.43-1.38l-2.9-.62c-2.56-.54-5.11-1.17-7.69-1.57-1.3-.2-2.56-.57-3.85-.77-1.72-.26-3.43-.52-5.14-.82a75.25,75.25,0,0,0-12.87-1.53,5.07,5.07,0,0,1-4.71-3.35,4.66,4.66,0,0,1,.82-4.62,4.58,4.58,0,0,1,5-1.62,22.72,22.72,0,0,0,3.19.76c2.35.27,4.58,1,6.86,1.49,3.92.8,7.84,1.65,11.71,2.66,1.82.48,3.68.7,5.49,1.28,2.82.92,5.84,1.11,8.68,2a1,1,0,0,0,1.21-.64c.76-1.6,1.25-3.32,2.13-4.87.24-.44.21-.82-.37-1a29.34,29.34,0,0,0-3.48-1c-3.33-.53-6.54-1.6-9.88-2.08-2-.3-4-1-6-1.28-1.57-.25-3.15-.5-4.71-.82a30,30,0,0,0-6.8-1,6,6,0,0,1-3.64-1,5.18,5.18,0,0,1-1.27-6.54c1-1.82,3.55-2.55,5.8-2s4.37,1.25,6.55,1.87q4.95,1.44,10,2.62c2.67.62,5.25,1.52,7.95,2,3.05.6,6.05,1.48,9.13,2a1.17,1.17,0,0,0,1.46-.62c.51-.86.89-1.78,1.35-2.66s.18-1.34-.61-1.66c-1.48-.6-3-1.26-4.47-1.76-4-1.33-8.09-2.67-12.18-3.82a40.6,40.6,0,0,0-5.26-1.35c-3-.43-5.88-1.55-8.92-1.94-2.2-.27-4.35-.93-6.61-.93a4.79,4.79,0,0,1-4.91-3,4.89,4.89,0,0,1,2.42-6.34,6.49,6.49,0,0,1,4.49-.17c1.15.35,2.26.91,3.43,1.15,3.17.67,6.18,1.89,9.31,2.67.75.19,1.45.58,2.2.79,2.39.68,4.8,1.27,7.18,2,2.85.85,5.68,1.8,8.52,2.71,2.57.83,5.16,1.6,7.69,2.52,1,.36,1.37.11,1.69-.74,1.76-4.76,3.44-9.56,4-14.63.3-2.61.87-5.16,1.26-7.75.26-1.72.8-3.38,1.15-5.08.51-2.47.95-4.95,1.45-7.41a29.8,29.8,0,0,0,.88-5.12,68.8,68.8,0,0,1,1-9.71c.79-4.78,1.71-9.52,2.92-14.23.95-3.67,2.06-7.3,3-11,.86-3.19,1.07-6.49,2-9.66.64-2.29.51-4.7,1-7,.69-3,1.19-6,1.72-9,.28-1.6.51-3.22.67-4.84.24-2.53.41-5.08.59-7.62a16.91,16.91,0,0,0-.29-5.94,49.42,49.42,0,0,1-1.27-8.61,69.82,69.82,0,0,1-.32-9.16c.08-2.91,0-5.83,0-8.75a2.45,2.45,0,0,0-.42-1.62c.1-.43.28-1.05-.1-1.24s-.58.46-.87.74a4.54,4.54,0,0,0-.39.48c-1.08,1.45-2.69,2.29-4.07,3.38a32.46,32.46,0,0,0-5.76,5.65c-1.8,2.33-3.82,4.46-5.56,6.83a80.2,80.2,0,0,0-5.25,7.73c-1.33,2.34-2.8,4.6-4.15,6.93-1.12,1.93-2.17,3.89-3.17,5.88a18.66,18.66,0,0,1-1.77,3.62,5.05,5.05,0,0,1-6.16,1c-1.17-.69-1.95-1.85-3.24-2.38a68.15,68.15,0,0,0-9.77-3.61c-2.51-.61-4.95-1.46-7.44-2.13a31.86,31.86,0,0,0-8.32-.87,10.88,10.88,0,0,1-2.55-.09c0-.23.35-.61,0-.65-1.08-.12-2.17-.11-3.26-.15-2.12-.13-4.23-.41-6.34-.64a66.19,66.19,0,0,0-7.46-.18c-4.48,0-9,.11-13.44.11-2.34,0-4.63.62-7,.51a12.15,12.15,0,0,0-2.5.44,38.17,38.17,0,0,1-4.73.76c-3.54.17-7.08-.22-10.63.38a43.68,43.68,0,0,1-8.09.27,31.61,31.61,0,0,0-5.18,1.29,5.52,5.52,0,0,1-1.58.2,2.62,2.62,0,0,0-1.24.24A20.68,20.68,0,0,1,67.53,78c-2.81,1.07-5.62-.5-7.1-2.86s-2.27-5.25-3.38-7.88C56.39,65.67,56,64,55.27,62.45c-1-2.25-1.9-4.57-2.82-6.87C51,51.88,50,48,48.35,44.4c-2.12-4.69-3.91-9.53-5.91-14.27A13.52,13.52,0,0,0,40.52,26.72Z"/><path class="cls-5" d="M142.16,74.26c-1.25.39-2.4.38-3.26-.8,1.09,0,2.18,0,3.26.15C142.51,73.65,142.11,74,142.16,74.26Z"/><path class="cls-5" d="M40.52,26.72a2.43,2.43,0,0,0-1.81.46c0-.14,0-.27.09-.41.14-.57.25-1.38.89-1.38S40.34,26.19,40.52,26.72Z"/><path class="cls-5" d="M41.48,211.17a3.22,3.22,0,0,1-.66,1.38c-.37-.25-1-.5-.72-1A1.08,1.08,0,0,1,41.48,211.17Z"/><path class="cls-5" d="M210.73,42.31l-1.36,0a4.54,4.54,0,0,1,.39-.48c.29-.28.45-1,.87-.74S210.83,41.88,210.73,42.31Z"/><path class="cls-5" d="M38.63,27.46l.06,0-.06,0Z"/><path class="cls-5" d="M49.19,74.17c.31,3.45-1.68,4.84-4.3,5.33a10.9,10.9,0,0,0-4,1.73,4.38,4.38,0,0,1-5.85-.37,1.22,1.22,0,0,0-1.54-.22,3.73,3.73,0,0,1-3.65.21,4.09,4.09,0,0,1-2-4.65c.34-1.1.09-2.26.36-3.37a59.11,59.11,0,0,0,1.34-7.39C29.91,62.51,31,59.8,31.5,57c.34-1.76,1.06-3.45,1.44-5.22.43-2,1-4,1.48-6.09a7,7,0,0,1,2.95-4.52c2.48-1.67,5,.06,5.78,2.16a21,21,0,0,1,1.1,5.19A40.92,40.92,0,0,0,46,55.55a48,48,0,0,1,1.71,6.67c.46,3,.87,6,1.13,9A14.33,14.33,0,0,1,49.19,74.17Z"/><path class="cls-5" d="M207,60a27.18,27.18,0,0,0,.05,4.72c.77,4.28.25,8.57.34,12.86a29,29,0,0,1-.92,6.25c-.12.55-.15,1.13-.3,1.67-.7,2.57-1.84,3.44-4.48,3.43a7.62,7.62,0,0,1-2.41-.26,4,4,0,0,0-2.35.42c-3.05.92-4.13.63-6-2a.8.8,0,0,0-1.17-.28,3.87,3.87,0,0,1-4.69-.83,4,4,0,0,1-.89-4.41,71.93,71.93,0,0,1,3.65-7.68c1.1-2.27,2.16-4.56,3.21-6.85a59.85,59.85,0,0,1,4.13-8.29,30.35,30.35,0,0,1,5.48-6.49c1.82-1.57,5.66-.15,6.14,2.21A37.19,37.19,0,0,1,207,60Z"/><path class="cls-4" d="M107.08,186.52a15,15,0,0,1-3.23-.22,6.76,6.76,0,0,1-3.62-3.07,5.91,5.91,0,0,1-.73-4.76,2.73,2.73,0,0,1,.83-1.46c.7-.66,1.39-1.33,2-2,2.38-2.59,5.51-3.2,8.74-2.94a5.86,5.86,0,0,1,5.11,5.66,9.42,9.42,0,0,1-6.12,8.61A12.9,12.9,0,0,1,107.08,186.52Z"/><path class="cls-4" d="M163.73,155.2H158.5a44.19,44.19,0,0,1-11.35-1.94c-1.85-.49-3.54-1.47-5.52-1.52a2.11,2.11,0,0,1-1.76-1.54c-.3-.76.12-1.29.95-1.41a7.06,7.06,0,0,1,4.11.88,32.25,32.25,0,0,0,6.86,2.12c5.14,1.26,10.37.7,15.57.86a17.82,17.82,0,0,0,6.28-.92,1.75,1.75,0,0,1,2.21.5,1.17,1.17,0,0,1-.54,1.89,15.15,15.15,0,0,1-5.5,1.1C167.79,155.14,165.76,155.2,163.73,155.2Z"/><path class="cls-4" d="M77.79,147.94c-3.84.21-7.67-.21-11.51-.24-1.68,0-3.33.21-5,.24a3.31,3.31,0,0,0-1.29.48,1.43,1.43,0,0,1-1.68-.26,1.49,1.49,0,0,1-.47-1.64,1.48,1.48,0,0,1,1.3-1.12c3-.22,6-.86,9-.41,4.82.74,9.65.14,14.47.4,2,.1,3.77-.6,5.65-.88,1.51-.22,2.93-.85,4.48-.85.88,0,1.32.32,1.32,1.25s-.33,1.35-1.25,1.32a11.21,11.21,0,0,0-3.19.73,40.24,40.24,0,0,1-11.2,1Z"/><path class="cls-4" d="M155.37,130.52a5.21,5.21,0,0,1,5.47,5.17c.06,2.6-2.74,5.15-5.24,5.16-2.8,0-5.41-2.13-5.28-5C150.48,132.46,152.19,130.52,155.37,130.52Z"/><path class="cls-4" d="M70.77,127a5.35,5.35,0,0,1,5-5.32c2.5,0,5.4,2.7,5.31,5.72a5.29,5.29,0,0,1-5,5.16C73.46,132.7,70.44,129.86,70.77,127Z"/><path class="cls-4" d="M152.37,115.24a53.9,53.9,0,0,1,8.17,1.16c1.66.31,3.35.55,5,.8,2,.3,4,.71,5.94,1.11a1.5,1.5,0,0,1,1.12,1.8,1.6,1.6,0,0,1-2,1c-1.19-.32-2.33-.81-3.57-1-2.26-.42-4.54-.71-6.78-1.17a42.16,42.16,0,0,0-10.43-1.13,26.46,26.46,0,0,0-5.87.89,4.65,4.65,0,0,1-.72.16c-.87.08-1.58-.15-1.76-1.12a1.57,1.57,0,0,1,1.4-1.82A57.18,57.18,0,0,1,152.37,115.24Z"/><path class="cls-4" d="M87.65,112.06c-.92,0-1.85,0-2.77,0-2.86.1-5.68.58-8.52.94a36.06,36.06,0,0,1-4.51.55c-3.2,0-6.39-.06-9.59.21a4.89,4.89,0,0,0-2.07.76,1.59,1.59,0,0,1-1.71.1,1.06,1.06,0,0,1-.48-1.21,1.41,1.41,0,0,1,1.3-1.21,25.51,25.51,0,0,1,4.62-.59,66.43,66.43,0,0,0,12.29-.72,108.05,108.05,0,0,1,15.87-1c.77,0,1.35.19,1.34,1.11s-.65,1-1.39,1C90.57,112.05,89.11,112.06,87.65,112.06Z"/><polygon class="cls-6" points="269.04 12.03 330.78 12.03 330.78 12.03 423.39 12.03 639.47 12.03 639.47 142.3 639.47 142.3 639.47 198.13 639.47 235.35 423.39 235.35 330.78 235.35 330.78 235.35 269.04 235.35 269.04 198.13 222.53 167.87 269.04 142.3 269.04 12.03 269.04 12.03"/><g class="cls-7"><g class="cls-8"><path class="cls-9" d="M346.32,110.54h-9.09c-.6,0-.94-.27-.94-.87v-2.55a.82.82,0,0,1,.94-.93h5.95V89.13h-8.49v22.28c0,.67-.33.93-1,.93h-3.28c-.66,0-.93-.26-.93-.87V89.13H321V109.6c0,.67-.33.94-1,.94h-2.81a.82.82,0,0,1-.93-.94V85.51c0-1,.46-1.54,1.47-1.54h11.76V76.41h-12.3a.84.84,0,0,1-.93-.93V72.26c0-.67.26-1,.93-1h12.3V63.7h-8.89l-1.07,4.62a.83.83,0,0,1-.94.73h-3.27c-.47,0-.8-.2-.8-.6l3.21-14.12a.94.94,0,0,1,1-.8h3.14c.47,0,.8.2.8.67l-.93,4.28h7.75V53.4a.82.82,0,0,1,.93-.94h3.35a.84.84,0,0,1,.93.94v5.08h11.1a.84.84,0,0,1,.93.94V62.7a.89.89,0,0,1-.93,1h-11.1v7.56h12.23a.91.91,0,0,1,1,1v3.15a.88.88,0,0,1-1,1H334.69V84h11.7c1,0,1.53.54,1.53,1.61V109C347.92,110.07,347.39,110.54,346.32,110.54Zm10.76-10.44H354c-.67,0-1-.27-1-.94V54.47c0-.61.34-.94,1-.94h3.07a.9.9,0,0,1,.94,1V99.16A.85.85,0,0,1,357.08,100.1Zm14.17,12.24H360.69c-.6,0-.94-.26-.94-.87v-3.28c0-.6.27-.93.87-.93h7.15V53.4a.82.82,0,0,1,.94-.94h3.21a.87.87,0,0,1,.93.94v57.4C372.85,111.88,372.32,112.34,371.25,112.34Z"/><path class="cls-9" d="M392.9,53.4l-8.48,18.93a.94.94,0,0,1-1,.6h-3.87c-.47,0-.81-.13-.81-.47a1,1,0,0,1,.14-.4l8.55-18.87a1,1,0,0,1,1-.66h3.94c.4,0,.67.13.67.4A1.78,1.78,0,0,1,392.9,53.4Zm0,17.46L387,85.45h1.53a.9.9,0,0,1,.94,1v25a.89.89,0,0,1-1,1H385a.85.85,0,0,1-.94-.94V91.27h-4.54c-.47,0-.74-.14-.74-.41a1,1,0,0,1,.14-.4l8.28-19.8a1.08,1.08,0,0,1,1.07-.67h4.08c.4,0,.6.2.6.47A.81.81,0,0,1,392.9,70.86Zm28.47,5.49h-9.29v10h6.09a.94.94,0,0,1,.93,1v3.14a.91.91,0,0,1-.93.94h-6.09v13.38l9.16-.93c.47,0,.67.26.67.8v3c0,.67-.27,1-.87,1.07l-25.66,2.68c-.54,0-.74-.34-.74-.87v-3.08a.86.86,0,0,1,.87-.94l1.8-.13V84.58a.85.85,0,0,1,.94-.94h2.21c.66,0,1,.33,1,.94v21.34l6-.6v-29H396.25a.85.85,0,0,1-.94-.94V72a.83.83,0,0,1,.87-.94h11.23V60h-6.75l-1.34,5.89a.93.93,0,0,1-.94.8h-2.94c-.53,0-.8-.2-.8-.6v-.34l2.87-12.51a.92.92,0,0,1,1-.8h2.94c.47,0,.73.2.73.6l-.33,1.74h17c.61,0,.87.34.87.94v3.34c0,.61-.26.94-.87.94h-6.75v11h9.29c.74,0,.94.4.94.94v3.41A.82.82,0,0,1,421.37,76.35ZM439,109.73h-6.88c-.67,0-.94-.26-.94-.93V105c0-.67.27-.93.94-.93H436V58.61h-8.09v52.8c0,.67-.33.93-1,.93h-2.67c-.74,0-1-.26-1-.87V55.07a1.37,1.37,0,0,1,1.53-1.54H439a1.4,1.4,0,0,1,1.61,1.54v53.12A1.4,1.4,0,0,1,439,109.73Z"/><path class="cls-9" d="M472.17,59h-10.7l-5.08,16.53H470A1.35,1.35,0,0,1,471.5,77v33.06c0,1.07-.54,1.54-1.6,1.54H453.65c-1.07,0-1.53-.47-1.53-1.48V88.32H448c-.46,0-.73-.13-.73-.53a.73.73,0,0,1,.07-.34L456.06,59h-6.82c-.66,0-.93-.27-.93-.94V54.47c0-.61.27-.94.87-.94h23a.89.89,0,0,1,1,.94V58C473.17,58.68,472.84,59,472.17,59Zm-5.42,21.88H457v25.42h9.75ZM507.39,84h-4.08v27.37c0,.67-.33.93-1,.93H498.7c-.6,0-.94-.26-.94-.93V84H487l-2.87,27.43c-.07.61-.33.87-1.07.87h-3.54c-.54,0-.87-.2-.87-.67L481.52,84h-4.21c-.66,0-.93-.33-.93-1V79.49c0-.67.2-1,.87-1h4.54V59.08h-4.54c-.67,0-1-.27-1-.93V54.47a.85.85,0,0,1,.94-.94h30.21a.87.87,0,0,1,.93.94v3.68a.84.84,0,0,1-.93.93h-4.08V78.49h4.08a.89.89,0,0,1,.93,1V83A.89.89,0,0,1,507.39,84Zm-9.63-25H487.21V78.49h10.55Z"/><path class="cls-9" d="M524.16,111.41h-3.94a.82.82,0,0,1-.93-.94V55.94c0-.67.26-.94.93-.94h3.94c.67,0,1,.27,1,.94v54.53C525.17,111.07,524.83,111.41,524.16,111.41Zm47.72-30.18h-4c-.67,0-1-.27-1-.94V63.63H536.66a.81.81,0,0,1-.93-.93v-4a.85.85,0,0,1,.93-.94h34.69c1,0,1.47.54,1.47,1.54v21C572.82,81,572.55,81.23,571.88,81.23Zm.54,29.64h-35c-1,0-1.6-.4-1.6-1.67V85.91a.81.81,0,0,1,.93-.93h4.08a.9.9,0,0,1,.94,1v19.07h30.67c.61,0,.94.33.94,1v3.88C573.42,110.6,573.09,110.87,572.42,110.87Z"/></g><g class="cls-7"><g class="cls-10"><path class="cls-9" d="M349.31,168.66H337.08v25.09a1.36,1.36,0,0,1-1.47,1.54H295.37c-1.33,0-1.87-.47-1.87-1.47V163.64c0-1,.54-1.54,1.81-1.54h34.35V138.55c0-.67.33-1,.93-1h4.28a.88.88,0,0,1,1,1v5.22h13.44c.67,0,.93.33.93.94v4c0,.67-.26.94-1,.94H335.87v13h13.44a.81.81,0,0,1,.93.93v4.15C350.24,168.39,350,168.66,349.31,168.66ZM330.93,168H299.72V189.4h31.21Z"/><path class="cls-9" d="M412.93,195.22H363.54c-.67,0-1-.26-1-.93v-4c0-.67.33-.94,1-.94h44.71V165.25H359.8c-.67,0-1-.34-1-.94v-4.08a.85.85,0,0,1,.93-.94h53.4a1.36,1.36,0,0,1,1.47,1.54v32.65C414.6,194.82,413.87,195.22,412.93,195.22Zm-1.67-42.89H407c-.66,0-.93-.26-.93-.93v-5H362.74c-.67,0-.94-.27-.94-.94v-4c0-.6.27-.93.87-.93h48.06a1.44,1.44,0,0,1,1.6,1.6v9.24C412.33,152.07,411.93,152.33,411.26,152.33Z"/><path class="cls-9" d="M478.43,163.57h-4.14c-.74,0-1-.26-1-.93V148.05H429.44a.82.82,0,0,1-.94-.93V143c0-.67.27-1,.87-1h48.52c1,0,1.48.54,1.48,1.54v19.14C479.37,163.31,479.1,163.57,478.43,163.57Zm0,31.65H430.11c-1.07,0-1.61-.33-1.61-1.67V174.68c0-.67.27-.93.94-.93h4.14c.67,0,1,.26,1,1v14.58h43.84c.67,0,.94.27.94.94v4C479.37,195,479,195.22,478.43,195.22Z"/><path class="cls-9" d="M549.07,164.58H503.22v24.75h43.51c.6,0,.94.34.94,1v4c0,.61-.34.94-1,.94H498.81c-1.33,0-1.73-.6-1.73-1.61v-29.1h-4.82c-.67,0-.93-.27-.93-.94v-4c0-.67.26-1,.93-1h44.65V139.09a.84.84,0,0,1,.93-.94h4.21a.89.89,0,0,1,.94,1v19.47h6.15a.89.89,0,0,1,1,1v4C550.14,164.31,549.74,164.58,549.07,164.58Zm-46.92-11.44h-4.27c-.67,0-.94-.27-.94-.94V139.09a.82.82,0,0,1,.94-.94h4.27a.92.92,0,0,1,1,1v13C503.16,152.8,502.82,153.14,502.15,153.14Z"/><path class="cls-9" d="M589.31,196.23h-3.95c-1,0-1.47-.47-1.47-1.54v-3.55c0-1,.4-1.47,1.47-1.47h3.95a1.4,1.4,0,0,1,1.53,1.54v3.48A1.35,1.35,0,0,1,589.31,196.23Zm.13-14.86c0,.67-.33.94-1,.94h-2.27c-.67,0-1.07-.27-1.07-.94l-.94-22V137.55a.88.88,0,0,1,.94-.94h4.21c.66,0,.93.47.93,1.07v21.68Z"/></g></g></g></svg>